<svg width="28" height="28" viewBox="0 0 28 28" fill="none" xmlns="http://www.w3.org/2000/svg">
<g clip-path="url(#clip0_684_347)">
<path d="M26.0465 1.23189C24.4063 -0.408026 21.7474 -0.408026 20.1072 1.23189L6.3844 14.9547C4.99246 16.3508 4.75712 18.5264 5.81834 20.1879L0.41107 25.5956C0.0074999 25.9985 -0.113354 26.6049 0.104956 27.1316C0.323266 27.6584 0.837659 28.0016 1.40787 28.0008C1.78161 28.0021 2.14034 27.8539 2.4042 27.5892L7.81147 22.1815C9.47218 23.2466 11.6506 23.011 13.0451 21.6154L26.7679 7.89262C28.4056 6.25135 28.4056 3.59416 26.7679 1.95289L26.0465 1.23189ZM1.74434 26.9275C1.55542 27.1062 1.25985 27.1062 1.07094 26.9275C0.88617 26.741 0.88617 26.4405 1.07094 26.2541L6.40774 20.9182L7.0816 21.5916L1.74434 26.9275ZM26.1081 7.23416L12.3853 20.9542C11.7726 21.5668 10.9417 21.9111 10.0753 21.9111C9.20884 21.9111 8.3779 21.5668 7.76527 20.9542L7.04567 20.2346C5.77212 18.9579 5.77212 16.8913 7.04567 15.6146L20.7657 1.89176C22.0421 0.617431 24.1093 0.617431 25.3857 1.89176L26.1081 2.61416C27.3821 3.89064 27.3821 5.95767 26.1081 7.23416Z" fill="#A4ACAD"/>
<path d="M23.0781 1.90358C22.4539 1.90134 21.8549 2.14926 21.4149 2.59191L19.0815 4.92525C18.9553 5.0411 18.9027 5.21681 18.9445 5.38296C18.9864 5.54911 19.1159 5.67899 19.2819 5.72128C19.4479 5.76357 19.6238 5.71148 19.74 5.58558L22.0733 3.25225C22.6353 2.71725 23.5181 2.71725 24.08 3.25225C24.2631 3.4291 24.5542 3.42657 24.7342 3.24656C24.9142 3.06655 24.9167 2.77549 24.7399 2.59238C24.3 2.15034 23.7017 1.90236 23.0781 1.90358V1.90358Z" fill="#A4ACAD"/>
<path d="M17.0772 8.0556C17.201 8.05557 17.3196 8.00639 17.4071 7.91887L18.4072 6.9188C18.5285 6.80163 18.5772 6.62812 18.5345 6.46496C18.4918 6.3018 18.3643 6.17438 18.2012 6.13168C18.038 6.08897 17.8645 6.13762 17.7473 6.25893L16.7473 7.259C16.6138 7.39247 16.5739 7.59315 16.6461 7.76751C16.7184 7.94186 16.8885 8.05556 17.0772 8.0556V8.0556Z" fill="#A4ACAD"/>
<path d="M15.7435 9.58961C15.8783 9.45483 15.9187 9.25208 15.8457 9.07593C15.7728 8.89977 15.6009 8.78491 15.4103 8.78491C15.2196 8.78491 15.0477 8.89977 14.9748 9.07593C14.9018 9.25208 14.9422 9.45483 15.0771 9.58961C15.2611 9.77357 15.5594 9.77357 15.7435 9.58961Z" fill="#A4ACAD"/>
<path d="M18.7474 11.9267L12.0801 18.5939C11.9588 18.7111 11.9102 18.8846 11.9529 19.0478C11.9956 19.2109 12.123 19.3383 12.2862 19.381C12.4493 19.4238 12.6228 19.3751 12.74 19.2538L19.4073 12.5865C19.5841 12.4034 19.5816 12.1123 19.4016 11.9323C19.2216 11.7523 18.9305 11.7498 18.7474 11.9267Z" fill="#A4ACAD"/>
</g>
<defs>
<clipPath id="clip0_684_347">
<rect width="28" height="28" fill="white"/>
</clipPath>
</defs>
</svg>
