<svg width="30" height="19" viewBox="0 0 30 19" fill="none" xmlns="http://www.w3.org/2000/svg">
<path d="M28.6652 3.03414C27.289 2.17525 25.9475 2.03884 24.7659 2.63248C24.4586 2.32774 23.8308 1.82707 22.9793 1.76493C22.2194 1.70936 21.4691 2.01153 20.7479 2.66248C20.6769 2.02863 20.3839 1.44037 19.9206 1.00195C19.3712 0.490904 18.6463 0.210651 17.896 0.219183C16.525 0.219183 15.3396 1.25141 15.0536 2.58301L11.7092 0.43029C11.6367 0.383712 11.5554 0.352524 11.4704 0.338658C11.3854 0.324792 11.2984 0.328545 11.2149 0.349684C11.1301 0.371573 11.0508 0.410646 10.9818 0.464477C10.9128 0.518307 10.8556 0.585747 10.8137 0.66261C10.7726 0.738018 10.7338 0.814482 10.6971 0.892001C9.6206 0.495182 8.27144 0.776439 7.47111 1.60969C7.13561 1.95422 6.89495 2.37967 6.77251 2.84471C6.65007 3.30975 6.65002 3.79855 6.77236 4.26362H6.56997C6.05096 2.38553 4.14771 1.39757 4.06663 1.35628C3.98946 1.31694 3.90065 1.30686 3.81663 1.32792C3.73261 1.34897 3.65905 1.39973 3.60956 1.47082C3.56006 1.5419 3.53798 1.6285 3.54738 1.71461C3.55679 1.80072 3.59705 1.88051 3.66072 1.93923C3.69102 1.98811 3.92005 2.43458 3.39889 3.96001C2.09484 3.23175 0.72596 2.99739 0.451156 2.95616C0.418643 2.94962 0.385549 2.9464 0.352385 2.94654C0.261972 2.94809 0.175483 2.98375 0.110247 3.04637C0.0450119 3.10899 0.00584835 3.19394 0.000603913 3.28422C-0.00464052 3.37449 0.0244215 3.46341 0.081967 3.53316C0.139513 3.60292 0.221291 3.64835 0.310916 3.66035C0.313187 3.66035 0.333084 3.66346 0.368458 3.66914C0.390328 3.69937 0.491728 3.83973 0.49854 3.84929C0.695426 4.12762 0.970588 4.74254 1.1621 6.0917C1.30873 7.12333 1.89861 7.99489 2.54436 8.55669C2.07279 8.65964 1.73172 8.94406 1.68595 9.30832C1.6622 9.49614 1.65022 9.68527 1.6501 9.87459C1.6501 11.9291 3.01712 13.8452 5.49932 15.2699C6.68153 15.9485 8.05262 16.4776 9.54292 16.8418V18.1451C9.54292 18.2401 9.58069 18.3313 9.64793 18.3986C9.71516 18.4658 9.80635 18.5036 9.90144 18.5036H19.1708C19.2659 18.5036 19.3571 18.4658 19.4244 18.3986C19.4916 18.3313 19.5294 18.2401 19.5294 18.1451V16.8418C21.0197 16.4773 22.3908 15.9484 23.573 15.2699C26.0552 13.8451 27.4222 11.929 27.4222 9.87454C27.4221 9.68521 27.4102 9.49608 27.3864 9.30826C27.3723 9.20313 27.3343 9.10263 27.2752 9.01451C28.4337 8.58949 29.2703 7.60906 29.7145 6.68588C30.0208 6.05496 30.0831 5.33308 29.8894 4.659C29.6958 3.98492 29.2597 3.40622 28.6652 3.03414ZM17.896 0.936218C18.9895 0.936218 19.843 1.63975 20.0177 2.62454C19.8137 2.62089 19.5845 2.62561 19.3404 2.64443C19.2007 2.32393 18.9545 2.0616 18.6435 1.9019C18.3325 1.74221 17.9758 1.69497 17.6339 1.7682C17.292 1.84144 16.986 2.03063 16.7677 2.30372C16.5494 2.5768 16.4322 2.91698 16.4361 3.26658C16.436 3.33809 16.44 3.40955 16.448 3.48062L15.7138 3.00803C15.8115 1.86663 16.7709 0.936218 17.896 0.936218ZM18.5682 2.75163C18.0687 2.84823 17.5899 3.03138 17.1535 3.29281C17.1535 3.28391 17.1529 3.2756 17.1529 3.26628C17.1485 3.09977 17.1965 2.93606 17.2902 2.79836C17.3839 2.66065 17.5186 2.55591 17.6751 2.49899C17.8317 2.44206 18.0022 2.43583 18.1625 2.48117C18.3227 2.52651 18.4647 2.62113 18.5682 2.75163ZM11.4015 1.08488L16.2032 4.1756C16.0733 4.35875 15.9626 4.55471 15.8726 4.7604L12.6639 2.69337C12.5883 2.64421 12.5023 2.61354 12.4126 2.60386C12.323 2.59417 12.2324 2.60574 12.1481 2.63762C12.063 2.6697 11.9866 2.72109 11.9248 2.78774C11.863 2.8544 11.8176 2.93449 11.792 3.02171C11.5783 3.75428 11.771 4.69109 12.3205 5.59193C12.8349 6.43498 13.6346 7.20029 14.598 7.77936C14.4079 8.0078 14.2271 8.22834 14.1447 8.51432H13.9855C12.7171 7.59693 11.7538 6.32951 11.2688 4.93255C10.7875 3.54563 10.8353 2.18332 11.4015 1.08488ZM15.1192 6.78531C15.154 6.80738 15.1914 6.82495 15.2306 6.83759C15.1711 6.96284 15.1044 7.08454 15.0309 7.20209C13.1735 6.11458 12.2748 4.46827 12.4408 3.40216L15.6436 5.46555C15.6339 5.50881 15.6247 5.55249 15.6163 5.597C15.5944 5.71253 15.5709 5.82186 15.5456 5.92499C15.4421 5.88679 15.3286 5.88538 15.2241 5.92099C15.1197 5.9566 15.0306 6.02707 14.972 6.12056C14.9045 6.22855 14.882 6.35876 14.9096 6.48312C14.9371 6.60749 15.0124 6.71605 15.1192 6.78543V6.78531ZM10.9056 5.92881C11.3767 6.90947 12.036 7.78794 12.846 8.5142H10.9056V5.92881ZM7.98839 2.10636C8.58633 1.48385 9.6292 1.26725 10.4392 1.56094C10.3856 1.7388 10.342 1.91954 10.3086 2.1023C10.112 2.03642 9.90593 2.00306 9.69858 2.00352C9.22392 2.00628 8.76973 2.19717 8.43563 2.53434C8.10153 2.87151 7.91479 3.32743 7.91638 3.80209C7.91707 3.95795 7.93775 4.11308 7.97793 4.26368H7.52381C7.38702 3.89728 7.35808 3.49937 7.44041 3.11704C7.52275 2.7347 7.71291 2.38397 7.98839 2.10636ZM10.3439 4.26344H8.73548C8.66961 4.11838 8.63485 3.96115 8.63342 3.80185C8.63157 3.51728 8.74268 3.24359 8.94237 3.04084C9.14205 2.83808 9.41401 2.72281 9.69858 2.72032C9.88214 2.7184 10.0634 2.76089 10.227 2.84419C10.2094 3.3203 10.2486 3.79681 10.3439 4.26362V4.26344ZM6.69061 4.98047H10.1885V8.51414H5.90522C5.94266 8.2147 5.9525 7.91246 5.93462 7.61122C6.49259 6.71349 6.74565 5.83189 6.69061 4.98065V4.98047ZM4.45161 2.47139C4.97744 2.88781 5.64249 3.56827 5.88568 4.47747C6.05646 5.11605 5.99599 5.79066 5.70899 6.49115C5.5831 6.13784 5.40825 5.80396 5.18956 5.49925C4.86596 5.05546 4.47125 4.66818 4.02139 4.35307C4.28938 3.60281 4.43369 2.97212 4.45161 2.47139ZM1.87208 5.99084C1.74576 5.10195 1.56704 4.39908 1.3389 3.89184C2.32638 4.17584 3.78579 4.76823 4.60619 5.91644C5.12867 6.6477 5.32096 7.52075 5.18161 8.51444H4.93448C4.49768 6.11452 3.13783 5.43436 3.07771 5.4055C3.03524 5.38489 2.98911 5.37287 2.94197 5.37014C2.89484 5.3674 2.84763 5.374 2.80305 5.38956C2.75848 5.40512 2.71742 5.42934 2.68222 5.46081C2.64703 5.49228 2.6184 5.53039 2.59797 5.57296C2.57755 5.61553 2.56574 5.66171 2.56321 5.70886C2.56068 5.756 2.56749 5.80318 2.58324 5.84769C2.599 5.89219 2.62339 5.93315 2.65502 5.96821C2.68664 6.00326 2.72488 6.03173 2.76754 6.05196C2.77865 6.05728 3.81375 6.57564 4.20525 8.51444H3.91312C3.31953 8.44794 2.0762 7.42592 1.8722 5.99072L1.87208 5.99084ZM18.8123 17.7865H10.2603V17.0026C13.0833 17.5638 15.9892 17.5638 18.8123 17.0026V17.7865ZM26.6821 10.2875H8.72681C8.63173 10.2875 8.54054 10.3253 8.4733 10.3926C8.40607 10.4598 8.3683 10.551 8.3683 10.6461C8.3683 10.7411 8.40607 10.8323 8.4733 10.8996C8.54054 10.9668 8.63173 11.0046 8.72681 11.0046H26.5371C26.1288 12.3674 24.9852 13.6325 23.2161 14.648C20.9037 15.9754 17.8209 16.7064 14.5363 16.7064C11.2518 16.7064 8.16926 15.9754 5.85658 14.648C4.08748 13.6326 2.94381 12.3675 2.53552 11.0046H6.21719C6.31228 11.0046 6.40347 10.9669 6.4707 10.8996C6.53794 10.8324 6.57571 10.7412 6.57571 10.6461C6.57571 10.551 6.53794 10.4599 6.4707 10.3926C6.40347 10.3254 6.31228 10.2876 6.21719 10.2876H2.3905C2.35771 9.9941 2.35971 9.69774 2.39647 9.4047C2.42575 9.35271 2.6209 9.23142 2.94022 9.23142H26.1323C26.4516 9.23142 26.6466 9.35277 26.676 9.4047C26.6955 9.56056 26.7052 9.71747 26.7053 9.87454C26.705 10.0125 26.6973 10.1504 26.6821 10.2875ZM16.1257 8.51432C16.695 8.29813 17.3349 8.09922 18.0127 7.91745C18.0247 7.9294 18.0366 7.94093 18.049 7.95211C18.3086 8.16747 18.5895 8.35585 18.8873 8.51432H16.1257ZM29.0682 6.37517C28.5822 7.38529 27.554 8.47745 26.1255 8.51432H20.6805C20.0565 8.31461 19.4597 8.03857 18.9034 7.69248C20.0645 7.41654 21.2875 7.18661 22.4207 7.00078C22.4368 7.02121 22.4535 7.04123 22.4718 7.06053C22.9231 7.53151 23.8207 8.30572 24.8428 8.3056C24.8726 8.3056 24.9032 8.30495 24.9334 8.30357C24.9808 8.30196 25.0274 8.29097 25.0705 8.27122C25.1136 8.25147 25.1524 8.22337 25.1846 8.18854C25.2168 8.15371 25.2417 8.11284 25.258 8.0683C25.2742 8.02376 25.2815 7.97644 25.2794 7.92907C25.2772 7.8817 25.2657 7.83522 25.2455 7.79233C25.2253 7.74944 25.1967 7.71099 25.1615 7.67921C25.1264 7.64742 25.0852 7.62294 25.0405 7.60716C24.9958 7.59139 24.9484 7.58464 24.901 7.58731C24.2956 7.61366 23.694 7.20352 23.302 6.86227C25.3557 6.55156 26.9332 6.40068 26.9709 6.39716C27.0655 6.3883 27.1528 6.34219 27.2135 6.26898C27.2742 6.19578 27.3033 6.10146 27.2944 6.00679C27.2856 5.91212 27.2395 5.82484 27.1663 5.76416C27.0931 5.70348 26.9987 5.67437 26.9041 5.68323C26.7492 5.69775 25.1682 5.84898 23.1318 6.15791C23.4022 5.66745 23.9368 4.98221 24.8612 4.82978C24.9546 4.81387 25.0379 4.76162 25.0929 4.68447C25.1479 4.60731 25.1701 4.51152 25.1547 4.41803C25.1393 4.32454 25.0875 4.24095 25.0106 4.18554C24.9338 4.13012 24.8381 4.10739 24.7445 4.1223C23.2334 4.37147 22.5413 5.66082 22.3139 6.20362C22.302 6.23246 22.2918 6.26197 22.2834 6.29199C21.0992 6.48661 19.8164 6.73016 18.598 7.02647C18.7989 6.4544 19.2394 5.58643 20.1183 5.28856C20.1634 5.27379 20.205 5.25024 20.2409 5.21928C20.2767 5.18832 20.3061 5.15055 20.3273 5.10817C20.3484 5.06579 20.361 5.01964 20.3642 4.97237C20.3675 4.9251 20.3613 4.87766 20.3461 4.83279C20.3309 4.78793 20.3069 4.74652 20.2756 4.71096C20.2443 4.67541 20.2063 4.64641 20.1637 4.62565C20.1211 4.60489 20.0748 4.59277 20.0275 4.59001C19.9802 4.58724 19.9328 4.59388 19.8881 4.60953C18.4973 5.08098 17.9705 6.546 17.8087 7.15393C17.8019 7.18014 17.7964 7.20668 17.7922 7.23346C16.8619 7.4855 15.995 7.77082 15.2707 8.09097C15.6192 7.66177 16.0773 7.0104 16.3204 5.73133C16.5541 4.50281 17.3566 3.73708 18.7055 3.45552C19.3942 3.32316 20.1001 3.30614 20.7943 3.40515C20.8501 3.41491 20.9074 3.41131 20.9616 3.39462C21.0157 3.37794 21.0651 3.34866 21.1057 3.30919C21.7149 2.71763 22.3258 2.43876 22.9206 2.47987C23.805 2.54118 24.4018 3.29496 24.4069 3.3016C24.4607 3.37169 24.5384 3.41946 24.6253 3.43576C24.7121 3.45206 24.8018 3.43573 24.8774 3.38991C25.8877 2.77691 27.0344 2.86194 28.2853 3.64267C28.7298 3.92136 29.0556 4.35449 29.2002 4.85883C29.3447 5.36318 29.2978 5.90314 29.0684 6.37499L29.0682 6.37517Z" fill="#A4ACAD"/>
<path d="M14.2959 4.85769C14.2424 4.82321 14.1826 4.79969 14.1199 4.7885C14.0572 4.77731 13.993 4.77866 13.9308 4.79249C13.8687 4.80632 13.8099 4.83234 13.7579 4.86905C13.7059 4.90576 13.6617 4.95243 13.6278 5.00635C13.5603 5.11427 13.5378 5.24441 13.5653 5.36874C13.5928 5.49306 13.668 5.60161 13.7748 5.67098C13.8521 5.72116 13.9422 5.74789 14.0344 5.74795C14.0697 5.74792 14.1049 5.74405 14.1393 5.73641C14.2016 5.72279 14.2605 5.69686 14.3127 5.66013C14.3648 5.62341 14.4091 5.57663 14.4429 5.52256C14.5104 5.4146 14.5329 5.28442 14.5054 5.16006C14.4779 5.0357 14.4027 4.92711 14.2959 4.85769Z" fill="#A4ACAD"/>
<path d="M7.74862 13.988C7.70567 14.0728 7.69817 14.1712 7.72778 14.2616C7.75738 14.3519 7.82166 14.4268 7.90648 14.4698C9.23863 15.1432 10.7048 15.5093 12.1972 15.5412H12.2065C12.3016 15.5424 12.3932 15.5058 12.4613 15.4394C12.5294 15.373 12.5683 15.2823 12.5695 15.1872C12.5707 15.0921 12.534 15.0004 12.4676 14.9324C12.4012 14.8643 12.3105 14.8254 12.2154 14.8242C10.8295 14.7948 9.46777 14.455 8.23046 13.8299C8.18845 13.8086 8.14265 13.7959 8.09569 13.7923C8.04873 13.7887 8.00153 13.7944 7.95679 13.8091C7.91204 13.8238 7.87063 13.8472 7.83491 13.8779C7.79919 13.9085 7.76987 13.946 7.74862 13.988Z" fill="#A4ACAD"/>
<path d="M6.96267 13.0588C6.84717 12.976 6.73143 12.8892 6.61861 12.8009C6.54374 12.7422 6.44865 12.7158 6.35424 12.7272C6.25984 12.7387 6.17386 12.7872 6.11523 12.8621C6.05659 12.937 6.0301 13.0321 6.04158 13.1265C6.05306 13.2209 6.10157 13.3068 6.17644 13.3655C6.2972 13.46 6.42107 13.5528 6.54476 13.6415C6.58299 13.6695 6.62638 13.6895 6.67241 13.7006C6.71844 13.7116 6.7662 13.7135 6.81294 13.706C6.85968 13.6985 6.90447 13.6818 6.94473 13.6569C6.98499 13.632 7.01992 13.5993 7.0475 13.5609C7.07508 13.5224 7.09478 13.4788 7.10544 13.4327C7.1161 13.3866 7.11753 13.3388 7.10963 13.2922C7.10173 13.2455 7.08467 13.2008 7.05942 13.1608C7.03418 13.1207 7.00126 13.0861 6.96255 13.0588H6.96267Z" fill="#A4ACAD"/>
</svg>
